<svg viewBox="0 0 156.5 43" xmlns="http://www.w3.org/2000/svg" xmlns:xlink="http://www.w3.org/1999/xlink" id="logo" overflow="hidden"><defs></defs><path d="M146 28 143.9 28C142 28 141.3 27.8 141.3 25.8 141.3 23.8 141.6 23.7 145.2 23.7L155.2 23.7 155.2 18.3 144.9 18.3C138.4 18.3 134.4 18.8 134.4 25.9 134.4 33 137.3 33.4 143.6 33.4L143.6 33.4C143.6 33.4 143.9 33.4 143.9 33.4L145.7 33.4C149.3 33.4 149.6 34.1 149.6 35.5 149.6 37.5 148.9 37.7 146.9 37.7L135.5 37.7 135.5 43.1 146.8 43.1C153.4 43.1 156.5 42.7 156.5 35.6 156.5 28.5 152.5 28.1 146 28.1" stroke-width="0" fill="#004098"/><path d="M14.9 17.8 23.1 17.8 14.5 28.8 23.8 42.8 15.2 42.8 7 29.5 6.9 29.5 6.9 42.8 0 42.8 0 17.8 6.9 17.8 6.9 28.8 7 28.8 14.9 17.8" stroke-width="0" fill="#004098"/><rect x="29" y="17.8" width="6.9" height="25" stroke-width="0" fill="#004098"/><path d="M97.4 28.4 99.3 28.4C101.5 28.4 103.7 28.1 103.7 25.5 103.7 22.9 101.6 22.6 99.3 22.6L96.6 22.6 96.6 42.8 89.7 42.8 89.7 17.8 101.3 17.8C105.5 17.8 111 18.9 111 24.2 111 29.5 111 27 110.8 28 110 31.1 107.3 32 105.3 32L112.5 42.8 104.9 42.8 97.6 28.4" stroke-width="0" fill="#004098"/><rect x="119.9" y="17.8" width="6.9" height="25" stroke-width="0" fill="#004098"/><path d="M57.8 42.8 64.7 42.8 64.7 20.9C62.4 20.9 60 21.5 57.8 22.3L57.8 42.8" stroke-width="0" fill="#004098"/><path d="M37.5 5C37.5 7.7 35.3 9.9 32.5 9.9 29.8 9.9 27.6 7.7 27.6 4.9 27.6 2.2 29.9 0 32.6 0 35.3 0 37.5 2.2 37.5 5" stroke-width="0" fill="#004098"/><path d="M37.5 5C37.5 7.7 35.3 9.9 32.5 9.9 29.8 9.9 27.6 7.7 27.6 4.9 27.6 2.2 29.9 0 32.6 0 35.3 0 37.5 2.2 37.5 5" stroke-width="0" fill="#004098"/><path d="M82.8 23.1 82.8 23.1C83.8 20.8 83.5 18.5 83.4 17.8 83.2 16.6 80.9 7.8 66 9.9 59.9 10.8 54.1 14.2 50 17.9 44 23.4 40.9 29.6 40.9 29.6L41.9 30.1C41.9 30.1 59.2 13.7 71.9 20.3 71.9 20.3 77.9 23.3 73.8 28L73.8 28C73.8 28 72.4 29.6 70.3 30.3L70.3 30.8C70.4 30.8 77.9 30.2 81.9 24.7 82.3 24.2 82.5 23.7 82.8 23.3 82.8 23.3 82.8 23.1 82.9 23.1" stroke-width="0" fill="#DF3A38"/></svg>